<svg viewBox="0 0 137 59" width="137" height="59" fill="none" xmlns="http://www.w3.org/2000/svg">
  <style>
    path { fill: #1e1f1d !important; }
    @media (prefers-color-scheme:dark) {
      path { fill: #e1e0e2 !important; }
    }
  </style>
  <path d="M0.5 33.9H1.5V40.2C1.5 41.3 2 41.9 3.2 41.9C4.4 41.9 4.9 41.4 4.9 40.2V33.9H5.9V40.2C5.9 42 4.9 42.7 3.2 42.7C1.5 42.8 0.5 42 0.5 40.2V33.9ZM8.6 42.7V33.9H9.9L13.1 40.9H13.2V33.9H14.2V42.7H12.9L9.6 35.4H9.5V42.7H8.6ZM17 33.9H18V42.6H17V33.9ZM24.9 33.9H25.9L23.6 42.7H22.2L19.9 33.9H21L22.9 41.4H23L24.9 33.9ZM27.9 42.7V33.9H32.6V34.8H28.9V37.7H32.1V38.6H28.9V41.8H32.8V42.7H27.9ZM35.8 38.1H37.6C38.7 38.1 39.2 37.6 39.2 36.5C39.2 35.4 38.7 34.9 37.6 34.9H35.8V38.1ZM35.8 42.7H34.8V34H37.8C39.4 34 40.3 34.9 40.3 36.5C40.3 37.8 39.7 38.5 39.1 38.8L40.4 42.7H39.3L38.1 39.1H35.8V42.7ZM47.2 36.1C47.1 35.1 46.6 34.7 45.5 34.7C44.5 34.7 43.8 35.1 43.8 36.1C43.8 37.1 44.6 37.3 45.7 37.7C47.1 38.1 48.4 38.6 48.4 40.3C48.4 42 47.3 42.8 45.6 42.8C43.8 42.8 42.8 42 42.7 40.3L43.7 40.2C43.8 41.4 44.4 41.9 45.6 41.9C46.7 41.9 47.4 41.4 47.4 40.4C47.4 39.4 46.8 39.1 45.5 38.7C44.1 38.3 42.9 37.9 42.9 36.2C42.9 34.5 44 33.8 45.7 33.8C47.3 33.8 48.3 34.4 48.5 36L47.2 36.1ZM50.7 33.9H51.7V42.6H50.7V33.9ZM55.5 41.8H57.4C58.4 41.8 59.1 41.3 59.1 40.3V36.3C59.1 35.3 58.5 34.8 57.4 34.8H55.5V41.8ZM54.5 33.9H57.3C59.1 33.9 60.1 34.6 60.1 36.4V40.1C60.1 41.9 59.1 42.6 57.3 42.6H54.5V33.9ZM63.7 39.6H66.5L65.2 35H65.1L63.7 39.6ZM62.9 42.7H61.8L64.4 34H65.9L68.5 42.7H67.4L66.8 40.5H63.5L62.9 42.7ZM71.4 41.8H73.3C74.3 41.8 75 41.3 75 40.3V36.3C75 35.3 74.4 34.8 73.3 34.8H71.4V41.8ZM70.3 33.9H73.1C74.9 33.9 75.9 34.6 75.9 36.4V40.1C75.9 41.9 74.9 42.6 73.1 42.6H70.3V33.9ZM81.8 42.7V33.9H83.1L86.3 40.9H86.4V33.9H87.4V42.7H86.1L82.8 35.4H82.7V42.7H81.8ZM91.2 39.6H94L92.7 35H92.5L91.2 39.6ZM90.3 42.7H89.2L91.8 34H93.3L95.9 42.7H94.8L94.2 40.5H90.9L90.3 42.7ZM101.7 36.6V36.2C101.7 35.1 101.2 34.7 100 34.7C98.9 34.7 98.2 35.1 98.2 36.2V40.3C98.2 41.4 98.8 41.8 100 41.8C101.1 41.8 101.7 41.3 101.7 40.3V39.9L102.7 40V40.1C102.7 41.9 101.8 42.7 100 42.7C98.2 42.7 97.2 42 97.2 40.2V36.2C97.2 34.4 98.2 33.7 100 33.7C101.8 33.7 102.7 34.4 102.7 36.3V36.5L101.7 36.6ZM105.2 33.9H106.2V42.6H105.2V33.9ZM109.8 40.4C109.8 41.5 110.5 41.9 111.6 41.9C112.7 41.9 113.4 41.5 113.4 40.4V36.3C113.4 35.2 112.7 34.8 111.6 34.8C110.5 34.8 109.8 35.2 109.8 36.3V40.4ZM108.8 36.3C108.8 34.4 109.8 33.8 111.6 33.8C113.4 33.8 114.4 34.5 114.4 36.3V40.2C114.4 42.1 113.4 42.7 111.6 42.7C109.8 42.7 108.8 42 108.8 40.2V36.3ZM117 42.7V33.9H118.3L121.5 40.9H121.6V33.9H122.5V42.7H121.3L118 35.4H117.9V42.7H117ZM126.4 39.6H129.2L127.9 35H127.8L126.4 39.6ZM125.5 42.7H124.4L127 34H128.5L131.1 42.7H130L129.4 40.6H126.1L125.5 42.7ZM133 42.7V33.9H134V41.8H137V42.7H133ZM1.7 57.5H3.6C4.6 57.5 5.3 57 5.3 56V52C5.3 51 4.7 50.5 3.6 50.5H1.7V57.5ZM0.6 49.6H3.5C5.3 49.6 6.3 50.3 6.3 52.1V55.8C6.3 57.6 5.3 58.3 3.5 58.3H0.6V49.6ZM8.8 58.4V49.6H13.5V50.5H9.8V53.4H13.1V54.3H9.8V57.5H13.7V58.4H8.8ZM20.2 50.6H18.1V49.6H23.2V50.6H21.2V58.4H20.2V50.6ZM26.1 53.8H27.9C29 53.8 29.5 53.3 29.5 52.2C29.5 51.1 29 50.6 27.9 50.6H26.1V53.8ZM26.1 58.4H25.1V49.7H28.1C29.7 49.7 30.6 50.6 30.6 52.2C30.6 53.5 30 54.2 29.4 54.5L30.7 58.4H29.6L28.4 54.8H26.1V58.4ZM33.3 58.4V49.6H38V50.5H34.3V53.4H37.5V54.3H34.3V57.5H38.2V58.4H33.3ZM44.5 51.8C44.4 50.8 43.9 50.4 42.8 50.4C41.8 50.4 41.1 50.8 41.1 51.8C41.1 52.8 41.9 53 43 53.4C44.4 53.8 45.7 54.3 45.7 56C45.7 57.7 44.6 58.5 42.9 58.5C41.1 58.5 40.1 57.7 40 56L41 55.9C41.1 57.1 41.7 57.6 42.9 57.6C44 57.6 44.7 57.1 44.7 56.1C44.7 55.1 44.1 54.8 42.8 54.4C41.4 54 40.2 53.6 40.2 51.9C40.2 50.2 41.3 49.5 43 49.5C44.6 49.5 45.6 50.1 45.8 51.7L44.5 51.8ZM52.3 57.5H54.2C55.3 57.5 55.9 57 55.9 56V52C55.9 51 55.3 50.5 54.2 50.5H52.3V57.5ZM51.3 49.6H54.1C55.9 49.6 56.9 50.3 56.9 52.1V55.8C56.9 57.6 55.9 58.3 54.1 58.3H51.3V49.6ZM59.4 58.4V49.6H64.1V50.5H60.4V53.4H63.7V54.3H60.4V57.5H64.3V58.4H59.4ZM69.7 58.4V49.6H74.1V50.5H70.7V53.4H73.7V54.3H70.7V58.4H69.7ZM76.1 58.4V49.6H80.8V50.5H77.1V53.4H80.3V54.3H77.1V57.5H81V58.4H76.1ZM84 57.5H86.1C87.2 57.5 87.8 56.9 87.8 55.9C87.8 54.8 87.2 54.3 86.1 54.3H84.1V57.5H84ZM84 53.4H86C87 53.4 87.5 52.9 87.5 52C87.5 51 87 50.6 86 50.6H84V53.4ZM83 49.6H86.3C87.9 49.6 88.6 50.3 88.6 51.8C88.6 52.8 88.3 53.4 87.6 53.7V53.8C88.2 54 88.8 54.7 88.8 55.9C88.8 57.4 88.1 58.3 86.4 58.3H83V49.6ZM92.4 53.8H94.2C95.3 53.8 95.8 53.3 95.8 52.2C95.8 51.1 95.3 50.6 94.2 50.6H92.4V53.8ZM92.4 58.4H91.4V49.7H94.4C96 49.7 96.9 50.6 96.9 52.2C96.9 53.5 96.3 54.2 95.7 54.5L97 58.4H95.9L94.7 54.8H92.4V58.4ZM99.5 58.4V49.6H104.2V50.5H100.5V53.4H103.8V54.3H100.5V57.5H104.4V58.4H99.5ZM107.5 53.8H109.3C110.4 53.8 110.9 53.3 110.9 52.2C110.9 51.1 110.4 50.6 109.3 50.6H107.5V53.8ZM107.5 58.4H106.5V49.7H109.5C111.1 49.7 112 50.6 112 52.2C112 53.5 111.4 54.2 110.8 54.5L112.1 58.4H111L109.8 54.8H107.5V58.4ZM115.4 56.1C115.4 57.2 116.1 57.6 117.2 57.6C118.3 57.6 119 57.2 119 56.1V52C119 50.9 118.3 50.5 117.2 50.5C116.1 50.5 115.4 50.9 115.4 52V56.1ZM114.4 52C114.4 50.1 115.4 49.5 117.2 49.5C119 49.5 120 50.2 120 52V55.9C120 57.8 119 58.4 117.2 58.4C115.4 58.4 114.4 57.7 114.4 55.9V52ZM0.5 24.2H96.9V27.8H0.5V24.2ZM69.6 18V0.5H81.1V3.4H73.1V7.5H80.4V10.4H73.1V15.1H81.5V18H69.6ZM85.8 18V0.5H96.8V3.4H89.2V7.5H96.1V10.4H89.2V18H85.8ZM55 18H51.5V0.5H58.7C62.6 0.5 64.5 2.3 64.5 5.8C64.5 8.6 63.1 9.9 61.8 10.4L64.7 18H60.9L58.5 11H55V18ZM55 8.2H57.9C59.9 8.2 60.9 7.6 60.9 5.7C60.9 3.8 59.9 3.2 57.9 3.2H55V8.2ZM40.4 3.4H36V0.5H48.4V3.4H44V18H40.5V3.4H40.4ZM19.3 18V0.5H23.4L29.2 12.2H29.4V0.5H32.8V18H28.8L22.7 5.8H22.5V18H19.3ZM0.6 0.5H4.1V12.6C4.1 14.6 5.1 15.4 7.1 15.4C9.1 15.4 10.1 14.6 10.1 12.6V0.5H13.6V12.6C13.6 16.4 11.3 18.3 7.1 18.3C2.9 18.3 0.6 16.4 0.6 12.6V0.5Z" fill="#141819"/>
</svg>
